<svg xmlns="http://www.w3.org/2000/svg" width="210mm" height="297mm" viewBox="0 0 210 297">
<rect width="100%" height="100%" fill="white"/>
<rect x="-32.50" y="48.50" width="25.00" height="25.00" fill="black"/>
<rect x="17.50" y="48.50" width="25.00" height="25.00" fill="black"/>
<rect x="67.50" y="48.50" width="25.00" height="25.00" fill="black"/>
<rect x="117.50" y="48.50" width="25.00" height="25.00" fill="black"/>
<rect x="167.50" y="48.50" width="25.00" height="25.00" fill="black"/>
<rect x="217.50" y="48.50" width="25.00" height="25.00" fill="black"/>
<rect x="-7.50" y="73.50" width="25.00" height="25.00" fill="black"/>
<rect x="42.50" y="73.50" width="25.00" height="25.00" fill="black"/>
<rect x="92.50" y="73.50" width="25.00" height="25.00" fill="black"/>
<rect x="142.50" y="73.50" width="25.00" height="25.00" fill="black"/>
<rect x="192.50" y="73.50" width="25.00" height="25.00" fill="black"/>
<rect x="-32.50" y="98.50" width="25.00" height="25.00" fill="black"/>
<rect x="17.50" y="98.50" width="25.00" height="25.00" fill="black"/>
<rect x="67.50" y="98.50" width="25.00" height="25.00" fill="black"/>
<rect x="117.50" y="98.50" width="25.00" height="25.00" fill="black"/>
<rect x="167.50" y="98.50" width="25.00" height="25.00" fill="black"/>
<rect x="217.50" y="98.50" width="25.00" height="25.00" fill="black"/>
<rect x="-7.50" y="123.50" width="25.00" height="25.00" fill="black"/>
<rect x="42.50" y="123.50" width="25.00" height="25.00" fill="black"/>
<rect x="92.50" y="123.50" width="25.00" height="25.00" fill="black"/>
<rect x="142.50" y="123.50" width="25.00" height="25.00" fill="black"/>
<rect x="192.50" y="123.50" width="25.00" height="25.00" fill="black"/>
<rect x="-32.50" y="148.50" width="25.00" height="25.00" fill="black"/>
<rect x="17.50" y="148.50" width="25.00" height="25.00" fill="black"/>
<rect x="67.50" y="148.50" width="25.00" height="25.00" fill="black"/>
<rect x="117.50" y="148.50" width="25.00" height="25.00" fill="black"/>
<rect x="167.50" y="148.50" width="25.00" height="25.00" fill="black"/>
<rect x="217.50" y="148.50" width="25.00" height="25.00" fill="black"/>
<rect x="-7.50" y="173.50" width="25.00" height="25.00" fill="black"/>
<rect x="42.50" y="173.50" width="25.00" height="25.00" fill="black"/>
<rect x="92.50" y="173.50" width="25.00" height="25.00" fill="black"/>
<rect x="142.50" y="173.50" width="25.00" height="25.00" fill="black"/>
<rect x="192.50" y="173.50" width="25.00" height="25.00" fill="black"/>
<rect x="-32.50" y="198.50" width="25.00" height="25.00" fill="black"/>
<rect x="17.50" y="198.50" width="25.00" height="25.00" fill="black"/>
<rect x="67.50" y="198.50" width="25.00" height="25.00" fill="black"/>
<rect x="117.50" y="198.50" width="25.00" height="25.00" fill="black"/>
<rect x="167.50" y="198.50" width="25.00" height="25.00" fill="black"/>
<rect x="217.50" y="198.50" width="25.00" height="25.00" fill="black"/>
<rect x="-7.50" y="223.50" width="25.00" height="25.00" fill="black"/>
<rect x="42.50" y="223.50" width="25.00" height="25.00" fill="black"/>
<rect x="92.50" y="223.50" width="25.00" height="25.00" fill="black"/>
<rect x="142.50" y="223.50" width="25.00" height="25.00" fill="black"/>
<rect x="192.50" y="223.50" width="25.00" height="25.00" fill="black"/>
<text x="105" y="10" font-size="4" text-anchor="middle" fill="gray">11x8  25.0mm/格</text>
</svg>